<svg xmlns="http://www.w3.org/2000/svg" viewBox="0 0 800 600" width="800" height="600" role="img" aria-label="Sample check-in photo">
  <defs>
    <linearGradient id="g4" x1="0" y1="0" x2="0" y2="1">
      <stop offset="0" stop-color="#E0EEEF"/>
      <stop offset="1" stop-color="#6FA3A6"/>
    </linearGradient>
  </defs>
  <rect x="0" y="0" width="800" height="600" fill="url(#g4)"/>
  <rect x="0" y="430" width="800" height="170" fill="#A5C4C6"/>
  <rect x="150" y="78" width="500" height="292" rx="8" ry="8" fill="#558A8E"/>
  <rect x="186" y="118" width="428" height="28" rx="14" ry="14" fill="#E4F0F1" fill-opacity="0.62"/>
  <rect x="186" y="172" width="298" height="18" rx="9" ry="9" fill="#E4F0F1" fill-opacity="0.42"/>
  <rect x="186" y="208" width="358" height="18" rx="9" ry="9" fill="#E4F0F1" fill-opacity="0.42"/>
  <rect x="186" y="244" width="238" height="18" rx="9" ry="9" fill="#E4F0F1" fill-opacity="0.42"/>
  <rect x="230" y="372" width="340" height="68" fill="#39646A"/>
  <rect x="214" y="352" width="372" height="22" rx="4" ry="4" fill="#47757A"/>
  <rect x="256" y="312" width="46" height="40" rx="3" ry="3" fill="#2F5459"/>
  <rect x="322" y="322" width="38" height="30" rx="3" ry="3" fill="#8FBBBD"/>
  <rect x="382" y="304" width="52" height="48" rx="3" ry="3" fill="#2F5459"/>
  <rect x="454" y="318" width="40" height="34" rx="3" ry="3" fill="#8FBBBD"/>
  <text x="400" y="524" text-anchor="middle" dominant-baseline="central" font-family="Inter, system-ui, sans-serif" font-weight="600" font-size="26" fill="#FFFFFF" fill-opacity="0.88">Sample check-in photo</text>
</svg>
