<svg xmlns="http://www.w3.org/2000/svg" viewBox="0 0 800 600" width="800" height="600" role="img" aria-label="Supermarket aisle with shelving and rows of product blocks">
  <defs>
    <linearGradient id="gal2" x1="0" y1="0" x2="0" y2="1">
      <stop offset="0" stop-color="#F4E6E3"/>
      <stop offset="1" stop-color="#BF8E88"/>
    </linearGradient>
  </defs>
  <rect x="0" y="0" width="800" height="600" fill="url(#gal2)"/>
  <rect x="0" y="470" width="800" height="130" fill="#AE7F7A"/>
  <rect x="0" y="470" width="800" height="10" fill="#9C7069"/>
  <rect x="316" y="196" width="168" height="274" fill="#C99C95"/>
  <rect x="316" y="196" width="168" height="14" fill="#8E6660"/>
  <rect x="40" y="96" width="272" height="374" rx="4" ry="4" fill="#B58983"/>
  <rect x="488" y="96" width="272" height="374" rx="4" ry="4" fill="#B58983"/>
  <rect x="40" y="164" width="272" height="12" fill="#8E6660"/>
  <rect x="40" y="248" width="272" height="12" fill="#8E6660"/>
  <rect x="40" y="332" width="272" height="12" fill="#8E6660"/>
  <rect x="40" y="416" width="272" height="12" fill="#8E6660"/>
  <rect x="488" y="164" width="272" height="12" fill="#8E6660"/>
  <rect x="488" y="248" width="272" height="12" fill="#8E6660"/>
  <rect x="488" y="332" width="272" height="12" fill="#8E6660"/>
  <rect x="488" y="416" width="272" height="12" fill="#8E6660"/>
  <rect x="58" y="120" width="40" height="44" fill="#F0DFDB" fill-opacity="0.72"/>
  <rect x="110" y="126" width="34" height="38" fill="#7E5852"/>
  <rect x="156" y="118" width="46" height="46" fill="#F0DFDB" fill-opacity="0.52"/>
  <rect x="214" y="130" width="36" height="34" fill="#7E5852"/>
  <rect x="262" y="120" width="42" height="44" fill="#F0DFDB" fill-opacity="0.72"/>
  <rect x="58" y="206" width="36" height="42" fill="#7E5852"/>
  <rect x="106" y="200" width="46" height="48" fill="#F0DFDB" fill-opacity="0.6"/>
  <rect x="164" y="210" width="38" height="38" fill="#7E5852"/>
  <rect x="214" y="202" width="44" height="46" fill="#F0DFDB" fill-opacity="0.72"/>
  <rect x="270" y="212" width="34" height="36" fill="#7E5852"/>
  <rect x="58" y="288" width="44" height="44" fill="#F0DFDB" fill-opacity="0.52"/>
  <rect x="114" y="294" width="36" height="38" fill="#7E5852"/>
  <rect x="162" y="286" width="46" height="46" fill="#F0DFDB" fill-opacity="0.72"/>
  <rect x="220" y="296" width="38" height="36" fill="#7E5852"/>
  <rect x="268" y="288" width="36" height="44" fill="#F0DFDB" fill-opacity="0.6"/>
  <rect x="58" y="374" width="38" height="42" fill="#7E5852"/>
  <rect x="108" y="368" width="48" height="48" fill="#F0DFDB" fill-opacity="0.6"/>
  <rect x="168" y="378" width="36" height="38" fill="#7E5852"/>
  <rect x="216" y="370" width="44" height="46" fill="#F0DFDB" fill-opacity="0.72"/>
  <rect x="272" y="380" width="32" height="36" fill="#7E5852"/>
  <rect x="502" y="120" width="42" height="44" fill="#F0DFDB" fill-opacity="0.6"/>
  <rect x="556" y="128" width="34" height="36" fill="#7E5852"/>
  <rect x="602" y="118" width="46" height="46" fill="#F0DFDB" fill-opacity="0.72"/>
  <rect x="660" y="130" width="36" height="34" fill="#7E5852"/>
  <rect x="708" y="120" width="40" height="44" fill="#F0DFDB" fill-opacity="0.52"/>
  <rect x="502" y="206" width="36" height="42" fill="#7E5852"/>
  <rect x="550" y="200" width="46" height="48" fill="#F0DFDB" fill-opacity="0.72"/>
  <rect x="608" y="210" width="38" height="38" fill="#7E5852"/>
  <rect x="658" y="202" width="44" height="46" fill="#F0DFDB" fill-opacity="0.6"/>
  <rect x="714" y="212" width="34" height="36" fill="#7E5852"/>
  <rect x="502" y="288" width="44" height="44" fill="#F0DFDB" fill-opacity="0.72"/>
  <rect x="558" y="294" width="36" height="38" fill="#7E5852"/>
  <rect x="606" y="286" width="46" height="46" fill="#F0DFDB" fill-opacity="0.52"/>
  <rect x="664" y="296" width="38" height="36" fill="#7E5852"/>
  <rect x="712" y="288" width="36" height="44" fill="#F0DFDB" fill-opacity="0.6"/>
  <rect x="502" y="374" width="38" height="42" fill="#7E5852"/>
  <rect x="552" y="368" width="48" height="48" fill="#F0DFDB" fill-opacity="0.6"/>
  <rect x="612" y="378" width="36" height="38" fill="#7E5852"/>
  <rect x="660" y="370" width="44" height="46" fill="#F0DFDB" fill-opacity="0.72"/>
  <rect x="716" y="380" width="32" height="36" fill="#7E5852"/>
  <rect x="342" y="252" width="116" height="30" rx="6" ry="6" fill="#F0DFDB" fill-opacity="0.6"/>
  <rect x="342" y="300" width="86" height="18" rx="9" ry="9" fill="#F0DFDB" fill-opacity="0.4"/>
  <text x="400" y="536" text-anchor="middle" dominant-baseline="central" font-family="Inter, system-ui, sans-serif" font-weight="600" font-size="24" fill="#FFFFFF" fill-opacity="0.62">Retail aisle</text>
</svg>
