<svg xmlns="http://www.w3.org/2000/svg" viewBox="0 0 800 600" width="800" height="600" role="img" aria-label="Product display pyramid stacked on a demonstration table">
  <defs>
    <linearGradient id="gal4" x1="0" y1="0" x2="0" y2="1">
      <stop offset="0" stop-color="#E5EFF0"/>
      <stop offset="1" stop-color="#82A7AB"/>
    </linearGradient>
  </defs>
  <rect x="0" y="0" width="800" height="600" fill="url(#gal4)"/>
  <rect x="0" y="464" width="800" height="136" fill="#6F969B"/>
  <rect x="0" y="464" width="800" height="10" fill="#5F868B"/>
  <rect x="96" y="54" width="608" height="228" rx="6" ry="6" fill="#5F868B" fill-opacity="0.55"/>
  <rect x="132" y="86" width="248" height="22" rx="11" ry="11" fill="#E6F0F1" fill-opacity="0.58"/>
  <rect x="132" y="130" width="170" height="14" rx="7" ry="7" fill="#E6F0F1" fill-opacity="0.34"/>
  <circle cx="580" cy="168" r="72" fill="#E6F0F1" fill-opacity="0.3"/>
  <rect x="156" y="378" width="488" height="86" rx="6" ry="6" fill="#456B70"/>
  <rect x="140" y="356" width="520" height="24" rx="6" ry="6" fill="#557E83"/>
  <rect x="196" y="304" width="60" height="52" rx="4" ry="4" fill="#38585C"/>
  <rect x="266" y="304" width="60" height="52" rx="4" ry="4" fill="#9FBEC1"/>
  <rect x="336" y="304" width="60" height="52" rx="4" ry="4" fill="#38585C"/>
  <rect x="406" y="304" width="60" height="52" rx="4" ry="4" fill="#9FBEC1"/>
  <rect x="476" y="304" width="60" height="52" rx="4" ry="4" fill="#38585C"/>
  <rect x="546" y="304" width="60" height="52" rx="4" ry="4" fill="#9FBEC1"/>
  <rect x="231" y="246" width="60" height="52" rx="4" ry="4" fill="#9FBEC1"/>
  <rect x="301" y="246" width="60" height="52" rx="4" ry="4" fill="#38585C"/>
  <rect x="371" y="246" width="60" height="52" rx="4" ry="4" fill="#9FBEC1"/>
  <rect x="441" y="246" width="60" height="52" rx="4" ry="4" fill="#38585C"/>
  <rect x="511" y="246" width="60" height="52" rx="4" ry="4" fill="#9FBEC1"/>
  <rect x="266" y="188" width="60" height="52" rx="4" ry="4" fill="#38585C"/>
  <rect x="336" y="188" width="60" height="52" rx="4" ry="4" fill="#9FBEC1"/>
  <rect x="406" y="188" width="60" height="52" rx="4" ry="4" fill="#38585C"/>
  <rect x="476" y="188" width="60" height="52" rx="4" ry="4" fill="#9FBEC1"/>
  <rect x="301" y="130" width="60" height="52" rx="4" ry="4" fill="#9FBEC1"/>
  <rect x="371" y="130" width="60" height="52" rx="4" ry="4" fill="#38585C"/>
  <rect x="441" y="130" width="60" height="52" rx="4" ry="4" fill="#9FBEC1"/>
  <rect x="336" y="72" width="60" height="52" rx="4" ry="4" fill="#38585C"/>
  <rect x="406" y="72" width="60" height="52" rx="4" ry="4" fill="#9FBEC1"/>
  <text x="400" y="534" text-anchor="middle" dominant-baseline="central" font-family="Inter, system-ui, sans-serif" font-weight="600" font-size="24" fill="#FFFFFF" fill-opacity="0.62">Display pyramid</text>
</svg>
